<?xml version="1.0" standalone="no"?>
<!DOCTYPE svg PUBLIC "-//W3C//DTD SVG 20010904//EN"
 "http://www.w3.org/TR/2001/REC-SVG-20010904/DTD/svg10.dtd">
<svg version="1.0" xmlns="http://www.w3.org/2000/svg"
 width="48.000000pt" height="48.000000pt" viewBox="0 0 48.000000 48.000000"
 preserveAspectRatio="xMidYMid meet">

<g transform="translate(0.000000,48.000000) scale(0.100000,-0.100000)"
fill="#000000" stroke="none">
<path d="M201 397 c-19 -34 -39 -65 -44 -69 -6 -3 -37 -10 -69 -13 -32 -4 -61
-11 -64 -17 -4 -5 16 -33 44 -61 l51 -52 -11 -73 c-6 -40 -8 -75 -5 -79 3 -3
36 11 72 31 l67 37 65 -37 c35 -20 67 -33 70 -30 3 3 1 38 -5 78 l-11 73 51
52 c28 28 48 56 44 61 -3 6 -32 13 -64 17 -32 3 -63 10 -69 13 -5 4 -25 35
-44 69 -19 35 -36 63 -39 63 -3 0 -20 -28 -39 -63z m70 -28 c25 -55 37 -62
113 -73 l49 -8 -48 -48 c-40 -40 -46 -52 -42 -76 3 -16 8 -46 12 -67 l6 -38
-60 31 -61 30 -61 -30 -61 -31 5 28 c21 109 22 102 -29 154 l-47 47 49 8 c76
11 88 18 113 73 14 28 27 51 31 51 4 0 17 -23 31 -51z"/>
</g>
</svg>
